<svg width="44" height="27" viewBox="0 0 44 27" fill="none" xmlns="http://www.w3.org/2000/svg">
<path d="M0.6875 27V0.818181H7.79545V21.2727H18.3807V27H0.6875ZM21.2539 27V0.818181H32.555C34.4982 0.818181 36.1985 1.17187 37.6559 1.87926C39.1133 2.58665 40.2468 3.60511 41.0565 4.93466C41.8661 6.2642 42.271 7.85795 42.271 9.71591C42.271 11.5909 41.8533 13.1719 41.0181 14.4588C40.1914 15.7457 39.0281 16.7173 37.5281 17.3736C36.0366 18.0298 34.2937 18.358 32.2994 18.358H25.5494V12.8352H30.8675C31.7028 12.8352 32.4144 12.733 33.0025 12.5284C33.5991 12.3153 34.055 11.9787 34.3704 11.5185C34.6942 11.0582 34.8562 10.4574 34.8562 9.71591C34.8562 8.96591 34.6942 8.35653 34.3704 7.88778C34.055 7.41051 33.5991 7.06108 33.0025 6.83949C32.4144 6.60937 31.7028 6.49432 30.8675 6.49432H28.3619V27H21.2539ZM36.5948 14.983L43.1403 27H35.4187L29.0266 14.983H36.5948Z" fill="url(#paint0_linear_990_5)"/>
<defs>
<linearGradient id="paint0_linear_990_5" x1="-1" y1="14" x2="44" y2="14" gradientUnits="userSpaceOnUse">
<stop stop-color="#2C71DA"/>
<stop offset="1" stop-color="#2CB0DA"/>
</linearGradient>
</defs>
</svg>
