<svg width="16" height="16" viewBox="0 0 16 16" fill="none" xmlns="http://www.w3.org/2000/svg">
<path d="M0 0V16H16V0H0ZM5.33333 12.6667H3.33333V5.33333H5.33333V12.6667ZM4.33333 4.488C3.68933 4.488 3.16667 3.96133 3.16667 3.312C3.16667 2.66267 3.68933 2.136 4.33333 2.136C4.97733 2.136 5.5 2.66267 5.5 3.312C5.5 3.96133 4.978 4.488 4.33333 4.488ZM13.3333 12.6667H11.3333V8.93067C11.3333 6.68533 8.66667 6.85533 8.66667 8.93067V12.6667H6.66667V5.33333H8.66667V6.51C9.598 4.786 13.3333 4.65867 13.3333 8.16067V12.6667Z" fill="#E6E6E6"/>
</svg>
